<?xml version="1.0" encoding="utf-8"?>
<!-- Generator: Adobe Illustrator 15.1.0, SVG Export Plug-In . SVG Version: 6.00 Build 0)  -->
<!DOCTYPE svg PUBLIC "-//W3C//DTD SVG 1.1//EN" "http://www.w3.org/Graphics/SVG/1.1/DTD/svg11.dtd">
<svg version="1.1" id="Layer_1" xmlns="http://www.w3.org/2000/svg" xmlns:xlink="http://www.w3.org/1999/xlink" x="0px" y="0px"
	 width="183.334px" height="275px" viewBox="0 0 183.334 275" enable-background="new 0 0 183.334 275" xml:space="preserve">
<g>
	<rect x="117.857" y="117.857" fill="#80D3F3" width="13.095" height="13.095"/>
	<rect x="52.381" y="144.048" fill="#3486C7" width="13.096" height="13.095"/>
	<rect x="39.286" y="117.857" fill="#81D3F3" width="13.095" height="13.095"/>
	<polygon fill="#2FB4E8" points="78.571,196.429 78.571,209.523 85.119,202.977 	"/>
	<polygon fill="#1A74B9" points="39.286,78.571 39.286,91.666 45.834,85.119 	"/>
	<polygon fill="#81D3F3" points="39.286,91.666 52.381,91.666 45.834,85.119 	"/>
	<polygon fill="#81D3F3" points="78.571,144.048 91.667,144.048 85.119,137.5 	"/>
	<polygon fill="#1A74B9" points="91.667,144.048 91.667,130.952 85.119,137.5 	"/>
	<polygon fill="#81D3F3" points="104.763,78.571 104.763,91.666 111.31,85.119 	"/>
	<polygon fill="#56C7F2" points="130.952,117.857 130.952,117.857 144.048,117.857 144.048,130.952 	"/>
	<polygon fill="#56C7F2" points="117.857,104.762 117.857,104.762 130.952,104.762 130.952,117.857 	"/>
	<polygon fill="#3486C7" points="117.857,144.048 117.857,144.048 130.952,144.048 130.952,157.143 	"/>
	<polygon fill="#2FB4E8" points="104.763,196.429 104.763,196.429 117.857,196.429 117.857,209.523 	"/>
	<polygon fill="#81D3F3" points="91.667,183.334 91.667,183.334 104.763,183.334 104.763,196.429 	"/>
	<polygon fill="#2FB4E8" points="91.667,196.429 91.667,196.429 104.763,196.429 104.763,209.523 	"/>
	<polygon fill="#81D3F3" points="91.667,209.523 91.667,209.523 104.763,209.523 104.763,222.619 	"/>
	<polygon fill="#2FB4E8" points="78.571,196.429 78.571,196.429 91.667,196.429 91.667,209.523 	"/>
	<polygon fill="#3486C7" points="91.667,144.048 91.667,144.048 104.763,144.048 104.763,157.143 	"/>
	<polygon fill="#56C7F2" points="52.381,157.143 52.381,157.143 65.477,157.143 65.477,170.238 	"/>
	<polygon fill="#3486C7" points="39.286,144.048 39.286,144.048 52.381,144.048 52.381,157.143 	"/>
	<polygon fill="#56C7F2" points="39.286,104.762 39.286,104.762 52.381,104.762 52.381,117.857 	"/>
	<polygon fill="#81D3F3" points="39.286,78.571 39.286,78.571 52.381,78.571 52.381,91.666 	"/>
	<polygon fill="#81D3F3" points="26.19,65.477 26.19,65.477 39.286,65.477 39.286,78.571 	"/>
	<polygon fill="#DAF0FC" points="52.381,65.477 52.381,65.477 65.477,65.477 65.477,78.571 	"/>
	<polygon fill="#3486C7" points="52.381,78.571 52.381,78.571 65.477,78.571 65.477,91.666 	"/>
	<polygon fill="#81D3F3" points="52.381,117.857 52.381,117.857 65.477,117.857 65.477,130.952 	"/>
	<polygon fill="#3486C7" points="65.477,104.762 65.477,104.762 78.571,104.762 78.571,117.857 	"/>
	<polygon fill="#81D3F3" points="65.477,196.429 65.477,196.429 78.571,196.429 78.571,209.523 	"/>
	<polygon fill="#56C7F2" points="65.477,91.666 65.477,91.666 78.571,91.666 78.571,104.762 	"/>
	<polygon fill="#3486C7" points="78.571,91.666 78.571,91.666 91.667,91.666 91.667,104.762 	"/>
	<polygon fill="#81D3F3" points="78.571,157.143 78.571,157.143 91.667,157.143 91.667,170.238 	"/>
	<polygon fill="#3486C7" points="78.571,65.477 78.571,65.477 91.667,65.477 91.667,78.571 	"/>
	<polygon fill="#56C7F2" points="91.667,78.571 91.667,78.571 104.763,78.571 104.763,91.666 	"/>
	<polygon fill="#3486C7" points="104.763,91.666 104.763,91.666 117.857,91.666 117.857,104.762 	"/>
	<polygon fill="#56C7F2" points="104.763,78.571 104.763,78.571 117.857,78.571 117.857,91.666 	"/>
	<polygon fill="#56C7F2" points="117.857,78.571 117.857,78.571 130.952,78.571 130.952,91.666 	"/>
	<polygon fill="#81D3F3" points="130.952,39.285 130.952,39.285 144.048,39.285 144.048,52.381 	"/>
	<polygon fill="#81D3F3" points="104.763,52.381 104.763,52.381 117.857,52.381 117.857,65.477 	"/>
	<polygon fill="#3486C7" points="65.477,52.381 65.477,52.381 78.571,52.381 78.571,65.477 	"/>
	<polygon fill="#56C7F2" points="65.477,65.477 65.477,65.477 78.571,65.477 78.571,78.571 	"/>
	<polygon fill="#81D3F3" points="65.477,78.571 65.477,78.571 78.571,78.571 78.571,91.666 	"/>
	<polygon fill="#81D3F3" points="157.144,52.381 157.144,52.381 170.238,52.381 170.238,65.477 	"/>
	<polygon fill="#3486C7" points="39.286,78.571 39.286,78.571 26.19,78.571 26.19,65.477 	"/>
	<polygon fill="#56C7F2" points="130.952,157.143 130.952,157.143 117.857,157.143 117.857,144.048 	"/>
	<polygon fill="#3486C7" points="104.763,196.429 104.763,196.429 91.667,196.429 91.667,183.334 	"/>
	<polygon fill="#56C7F2" points="78.571,117.857 78.571,117.857 65.477,117.857 65.477,104.762 	"/>
	<polygon fill="#3486C7" points="78.571,104.762 78.571,104.762 65.477,104.762 65.477,91.666 	"/>
	<polygon fill="#81D3F3" points="65.477,91.666 65.477,91.666 52.381,91.666 52.381,78.571 	"/>
	<polygon fill="#81D3F3" points="65.477,78.571 65.477,78.571 52.381,78.571 52.381,65.477 	"/>
	<polygon fill="#3486C7" points="78.571,78.571 78.571,78.571 65.477,78.571 65.477,65.477 	"/>
	<polygon fill="#56C7F2" points="78.571,65.477 78.571,65.477 65.477,65.477 65.477,52.381 	"/>
	<polygon fill="#3486C7" points="52.381,117.857 52.381,117.857 39.286,117.857 39.286,104.762 	"/>
	<polygon fill="#1A74B9" points="65.477,130.952 65.477,130.952 52.381,130.952 52.381,117.857 	"/>
	<polygon fill="#81D3F3" points="78.571,144.048 78.571,144.048 65.477,144.048 65.477,130.952 	"/>
	<polygon fill="#56C7F2" points="78.571,157.143 78.571,157.143 65.477,157.143 65.477,144.048 	"/>
	<polygon fill="#56C7F2" points="52.381,157.143 52.381,157.143 39.286,157.143 39.286,144.048 	"/>
	<polygon fill="#1A74B9" points="91.667,170.238 91.667,170.238 78.571,170.238 78.571,157.143 	"/>
	<polygon fill="#1A74B9" points="91.667,117.857 91.667,117.857 78.571,117.857 78.571,104.762 	"/>
	<polygon fill="#56C7F2" points="91.667,104.762 91.667,104.762 78.571,104.762 78.571,91.666 	"/>
	<polygon fill="#3486C7" points="104.763,91.666 104.763,91.666 91.667,91.666 91.667,78.571 	"/>
	<polygon fill="#56C7F2" points="117.857,104.762 117.857,104.762 104.763,104.762 104.763,91.666 	"/>
	<polygon fill="#3486C7" points="144.048,130.952 144.048,130.952 130.952,130.952 130.952,117.857 	"/>
	<polygon fill="#1A74B9" points="91.667,78.571 91.667,78.571 78.571,78.571 78.571,65.477 	"/>
	<polygon fill="#3486C7" points="104.763,209.523 104.763,209.523 91.667,209.523 91.667,196.429 	"/>
	<polygon fill="#81D3F3" points="65.477,196.429 65.477,196.429 52.381,196.429 52.381,183.334 	"/>
	<polygon fill="#81D3F3" points="39.286,196.429 39.286,196.429 26.19,196.429 26.19,183.334 	"/>
	<polygon fill="#3486C7" points="39.286,170.238 39.286,170.238 26.19,170.238 26.19,157.143 	"/>
	<polygon fill="#81D3F3" points="144.048,196.429 144.048,196.429 130.952,196.429 130.952,183.334 	"/>
	<polygon fill="#3486C7" points="117.857,170.238 117.857,170.238 104.763,170.238 104.763,157.143 	"/>
	<polygon fill="#3486C7" points="130.952,117.857 130.952,117.857 117.857,117.857 117.857,104.762 	"/>
	<polygon fill="#56C7F2" points="130.952,104.762 130.952,104.762 117.857,104.762 117.857,91.666 	"/>
	<polygon fill="#1A74B9" points="130.952,91.666 130.952,91.666 117.857,91.666 117.857,78.571 	"/>
	<polygon fill="#56C7F2" points="130.952,78.571 130.952,78.571 117.857,78.571 117.857,65.477 	"/>
	<polygon fill="#3486C7" points="104.763,65.477 104.763,65.477 91.667,65.477 91.667,52.381 	"/>
	<polygon fill="#3486C7" points="52.381,52.381 52.381,52.381 39.286,52.381 39.286,39.285 	"/>
	<polygon fill="#1A74B9" points="104.763,13.096 104.763,13.096 91.667,13.096 91.667,0 	"/>
	<polygon fill="#3486C7" points="13.096,91.666 13.096,91.666 0,91.666 0,78.571 	"/>
	<polygon fill="#3486C7" points="170.238,91.666 170.238,91.666 170.238,78.571 183.334,78.571 	"/>
	<polygon fill="#56C7F2" points="157.144,235.715 157.144,235.715 157.144,222.619 170.238,222.619 	"/>
	<polygon fill="#56C7F2" points="78.571,275 78.571,275 78.571,261.904 91.667,261.904 	"/>
	<polygon fill="#DAF0FC" points="130.952,222.619 130.952,222.619 130.952,209.523 144.048,209.523 	"/>
	<polygon fill="#1A74B9" points="130.952,209.523 130.952,209.523 130.952,196.429 144.048,196.429 	"/>
	<polygon fill="#56C7F2" points="117.857,209.523 117.857,209.523 117.857,196.429 130.952,196.429 	"/>
	<polygon fill="#1A74B9" points="117.857,196.429 117.857,196.429 117.857,183.334 130.952,183.334 	"/>
	<polygon fill="#1A74B9" points="130.952,183.334 130.952,183.334 130.952,170.238 144.048,170.238 	"/>
	<polygon fill="#3486C7" points="117.857,170.238 117.857,170.238 117.857,157.143 130.952,157.143 	"/>
	<polygon fill="#1A74B9" points="130.952,157.143 130.952,157.143 130.952,144.048 144.048,144.048 	"/>
	<polygon fill="#3486C7" points="117.857,144.048 117.857,144.048 117.857,130.952 130.952,130.952 	"/>
	<polygon fill="#81D3F3" points="104.763,144.048 104.763,144.048 104.763,130.952 117.857,130.952 	"/>
	<polygon fill="#56C7F2" points="104.763,157.143 104.763,157.143 104.763,144.048 117.857,144.048 	"/>
	<polygon fill="#56C7F2" points="104.763,130.952 104.763,130.952 104.763,117.857 117.857,117.857 	"/>
	<polygon fill="#81D3F3" points="104.763,196.429 104.763,196.429 104.763,183.334 117.857,183.334 	"/>
	<polygon fill="#56C7F2" points="104.763,183.334 104.763,183.334 104.763,170.238 117.857,170.238 	"/>
	<polygon fill="#56C7F2" points="91.667,183.334 91.667,183.334 91.667,170.238 104.763,170.238 	"/>
	<polygon fill="#81D3F3" points="78.571,183.334 78.571,183.334 78.571,170.238 91.667,170.238 	"/>
	<polygon fill="#3486C7" points="78.571,196.429 78.571,196.429 78.571,183.334 91.667,183.334 	"/>
	<polygon fill="#1A74B9" points="52.381,209.523 52.381,209.523 52.381,196.429 65.477,196.429 	"/>
	<polygon fill="#1A74B9" points="39.286,196.429 39.286,196.429 39.286,183.334 52.381,183.334 	"/>
	<polygon fill="#3486C7" points="13.096,235.715 13.096,235.715 13.096,222.619 26.19,222.619 	"/>
	<polygon fill="#81D3F3" points="39.286,183.334 39.286,183.334 39.286,170.238 52.381,170.238 	"/>
	<polygon fill="#3486C7" points="52.381,183.334 52.381,183.334 52.381,170.238 65.477,170.238 	"/>
	<polygon fill="#56C7F2" points="65.477,183.334 65.477,183.334 65.477,170.238 78.571,170.238 	"/>
	<polygon fill="#3486C7" points="65.477,170.238 65.477,170.238 65.477,157.143 78.571,157.143 	"/>
	<polygon fill="#56C7F2" points="78.571,157.143 78.571,157.143 78.571,144.048 91.667,144.048 	"/>
	<polygon fill="#81D3F3" points="52.381,117.857 52.381,117.857 52.381,104.762 65.477,104.762 	"/>
	<polygon fill="#DAF0FC" points="26.19,117.857 26.19,117.857 26.19,104.762 39.286,104.762 	"/>
	<polygon fill="#3486C7" points="39.286,170.238 39.286,170.238 39.286,157.143 52.381,157.143 	"/>
	<polygon fill="#3486C7" points="91.667,170.238 91.667,170.238 91.667,157.143 104.763,157.143 	"/>
	<polygon fill="#3486C7" points="78.571,91.666 78.571,91.666 78.571,78.571 91.667,78.571 	"/>
	<polygon fill="#3486C7" points="65.477,130.952 65.477,130.952 65.477,117.857 78.571,117.857 	"/>
	<polygon fill="#56C7F2" points="78.571,144.048 78.571,144.048 78.571,130.952 91.667,130.952 	"/>
	<polygon fill="#3486C7" points="91.667,144.048 91.667,144.048 91.667,130.952 104.763,130.952 	"/>
	<polygon fill="#56C7F2" points="78.571,130.952 78.571,130.952 78.571,117.857 91.667,117.857 	"/>
	<polygon fill="#81D3F3" points="91.667,117.857 91.667,117.857 91.667,104.762 104.763,104.762 	"/>
	<polygon fill="#231F20" points="104.763,78.571 104.763,78.571 104.763,65.477 117.857,65.477 	"/>
	<polygon fill="#56C7F2" points="91.667,78.571 91.667,78.571 91.667,65.477 104.763,65.477 	"/>
	<polygon fill="#3486C7" points="130.952,91.666 130.952,91.666 130.952,78.571 144.048,78.571 	"/>
	<polygon fill="#56C7F2" points="39.286,78.571 39.286,78.571 39.286,65.477 52.381,65.477 	"/>
	<polygon fill="#3486C7" points="39.286,104.762 39.286,104.762 39.286,91.666 52.381,91.666 	"/>
	<polygon fill="#56C7F2" points="91.667,52.381 91.667,52.381 91.667,65.477 78.571,65.477 	"/>
	<polygon fill="#81D3F3" points="144.048,196.429 144.048,196.429 144.048,209.523 130.952,209.523 	"/>
	<polygon fill="#56C7F2" points="130.952,183.334 130.952,183.334 130.952,196.429 117.857,196.429 	"/>
	<polygon fill="#3486C7" points="170.238,157.143 170.238,157.143 170.238,170.238 157.144,170.238 	"/>
	<polygon fill="#DAF0FC" points="144.048,78.571 144.048,78.571 144.048,91.666 130.952,91.666 	"/>
	<polygon fill="#56C7F2" points="117.857,104.762 117.857,104.762 117.857,117.857 104.763,117.857 	"/>
	<polygon fill="#3486C7" points="117.857,117.857 117.857,117.857 117.857,130.952 104.763,130.952 	"/>
	<polygon fill="#3486C7" points="117.857,144.048 117.857,144.048 117.857,157.143 104.763,157.143 	"/>
	<polygon fill="#81D3F3" points="130.952,130.952 130.952,130.952 130.952,144.048 117.857,144.048 	"/>
	<polygon fill="#3486C7" points="117.857,170.238 117.857,170.238 117.857,183.334 104.763,183.334 	"/>
	<polygon fill="#3486C7" points="104.763,170.238 104.763,170.238 104.763,183.334 91.667,183.334 	"/>
	<polygon fill="#56C7F2" points="104.763,157.143 104.763,157.143 104.763,170.238 91.667,170.238 	"/>
	<polygon fill="#81D3F3" points="91.667,183.334 91.667,183.334 91.667,196.429 78.571,196.429 	"/>
	<polygon fill="#81D3F3" points="78.571,183.334 78.571,183.334 78.571,196.429 65.477,196.429 	"/>
	<polygon fill="#3486C7" points="78.571,170.238 78.571,170.238 78.571,183.334 65.477,183.334 	"/>
	<polygon fill="#3486C7" points="78.571,157.143 78.571,157.143 78.571,170.238 65.477,170.238 	"/>
	<polygon fill="#56C7F2" points="65.477,170.238 65.477,170.238 65.477,183.334 52.381,183.334 	"/>
	<polygon fill="#81D3F3" points="65.477,196.429 65.477,196.429 65.477,209.523 52.381,209.523 	"/>
	<polygon fill="#56C7F2" points="104.763,222.619 104.763,222.619 104.763,209.523 117.857,209.523 	"/>
	<polygon fill="#DAF0FC" points="52.381,222.619 52.381,222.619 52.381,209.523 65.477,209.523 	"/>
	<polygon fill="#2FB4E8" points="117.857,209.523 117.857,209.523 117.857,222.619 104.763,222.619 	"/>
	<polygon fill="#81D3F3" points="65.477,209.523 65.477,209.523 65.477,222.619 52.381,222.619 	"/>
	<polygon fill="#3486C7" points="91.667,144.048 91.667,144.048 91.667,157.143 78.571,157.143 	"/>
	<polygon fill="#2FB4E8" points="52.381,183.334 52.381,183.334 52.381,196.429 39.286,196.429 	"/>
	<polygon fill="#2FB4E8" points="52.381,157.143 52.381,157.143 52.381,170.238 39.286,170.238 	"/>
	<polygon fill="#DAF0FC" points="52.381,170.238 52.381,170.238 52.381,183.334 39.286,183.334 	"/>
	<polygon fill="#1A74B9" points="39.286,144.048 39.286,144.048 39.286,157.143 26.19,157.143 	"/>
	<polygon fill="#56C7F2" points="78.571,117.857 78.571,117.857 78.571,130.952 65.477,130.952 	"/>
	<polygon fill="#3486C7" points="91.667,117.857 91.667,117.857 91.667,130.952 78.571,130.952 	"/>
	<polygon fill="#56C7F2" points="104.763,130.952 104.763,130.952 104.763,144.048 91.667,144.048 	"/>
	<polygon fill="#56C7F2" points="104.763,117.857 104.763,117.857 104.763,130.952 91.667,130.952 	"/>
	<polygon fill="#3486C7" points="104.763,104.762 104.763,104.762 104.763,117.857 91.667,117.857 	"/>
	<polygon fill="#3486C7" points="104.763,91.666 104.763,91.666 104.763,104.762 91.667,104.762 	"/>
	<polygon fill="#81D3F3" points="91.667,78.571 91.667,78.571 91.667,91.666 78.571,91.666 	"/>
	<polygon fill="#2FB4E8" points="91.667,13.096 91.667,13.096 91.667,26.19 78.571,26.19 	"/>
	<polygon fill="#81D3F3" points="52.381,65.477 52.381,65.477 52.381,78.571 39.286,78.571 	"/>
	<polygon fill="#3486C7" points="39.286,78.571 39.286,78.571 39.286,91.666 26.19,91.666 	"/>
	<polygon fill="#2FB4E8" points="39.286,91.666 39.286,91.666 39.286,104.762 26.19,104.762 	"/>
	<polygon fill="#2FB4E8" points="39.286,104.762 39.286,104.762 39.286,117.857 26.19,117.857 	"/>
	<polygon fill="#3486C7" points="39.286,117.857 39.286,117.857 39.286,130.952 26.19,130.952 	"/>
	<polygon fill="#3486C7" points="65.477,104.762 65.477,104.762 65.477,117.857 52.381,117.857 	"/>
	<polygon fill="#81D3F3" points="65.477,91.666 65.477,91.666 65.477,104.762 52.381,104.762 	"/>
	<polygon fill="#56C7F2" points="52.381,91.666 52.381,91.666 52.381,104.762 39.286,104.762 	"/>
	<polygon fill="#81D3F3" points="65.477,130.952 65.477,130.952 65.477,144.048 52.381,144.048 	"/>
	<polygon fill="#56C7F2" points="13.096,144.048 13.096,144.048 13.096,157.143 0,157.143 	"/>
</g>
</svg>
